# xmcd
#
# Track frame offsets:
# 150
# 17463
# 34190
# 48646
# 66154
# 79104
# 97132
# 114571
# 128767
# 145961
# 160452
# 178062
# 196147
# 211762
#
# Disc length: 3021 seconds
#
#
# Revision: 0
# Processed by: cddbd v1.5PL3 Copyright (c) Steve Scherf et al.
# Submitted via: FreeRIP 2.53 
#
DISCID=c40bcb0e
DTITLE=Mania de Forró 3
DYEAR=2003
DGENRE=Forró
TTITLE0=Não Fale Mal do Meu País - Adelmário Coelho
TTITLE1=Quem Me Dera - Jorge Altino
TTITLE2=Pra Ver Qual é - Rogério
TTITLE3=Cortina de Fumaça - Pinóquio
TTITLE4=Pirilampos - Aracilio Araújo
TTITLE5=Pelas Ruas de São Paulo - Nilcezar - Nilvan
TTITLE6=Marcas do Passado - Ivaldo Maceió
TTITLE7=Saudade Tua - Ciúme Louco - Carlos André
TTITLE8=Chega de Saudade - Adelmário Coelho
TTITLE9=Prá Viver no Meu País - Aracilio Araújo
TTITLE10=Falta Juízo - Pinóquio
TTITLE11=Só Pra Fazer Amor - Nilcezar - Nilvan
TTITLE12=Morrendo de Saudade - Ivaldo Maceió
TTITLE13=Pena de Passarinho - Jorge Altinho
EXTD=
EXTT0=
EXTT1=
EXTT2=
EXTT3=
EXTT4=
EXTT5=
EXTT6=
EXTT7=
EXTT8=
EXTT9=
EXTT10=
EXTT11=
EXTT12=
EXTT13=
PLAYORDER=
